# xmcd
#
# Track frame offsets:
#	150
#	10897
#	31371
#	72154
#	92798
#	110715
#	131359
#	152519
#	155076
#	176359
#	180452
#	199731
#	220720
#	238576
#	260927
#	279015
#	297295
#	301655
#	324351
#	342094
#
# Disc length: 4781 seconds
#
# Revision: 1
# Processed by: cddbd v1.4PL0 Copyright (c) Steve Scherf et al.
# Submitted via: EasyCDDAExtractor 6.0.0.1
#
DISCID=1212ab14
DTITLE=B.G. - Checkmate
DYEAR=1900
DGENRE=Rap
TTITLE0=Big Tymers
TTITLE1=To My People
TTITLE2=Gun Slinger
TTITLE3=U Know How We Do
TTITLE4=What's That Smell
TTITLE5=This Nigga Die
TTITLE6=Change The World
TTITLE7=Tyma Talkin'
TTITLE8=Hennessy& XTC
TTITLE9=Tyma Talkin'
TTITLE10=Press On
TTITLE11=Jungle
TTITLE12=I Know
TTITLE13=Bounce With Me
TTITLE14=Get In Line
TTITLE15=Run With My Chopper
TTITLE16=Tyma Talkin'
TTITLE17=Problems
TTITLE18=Ah Ha...
TTITLE19=He Used 2 Be A Man
EXTD=
EXTT0=
EXTT1=
EXTT2=
EXTT3=
EXTT4=
EXTT5=
EXTT6=
EXTT7=
EXTT8=
EXTT9=
EXTT10=
EXTT11=
EXTT12=
EXTT13=
EXTT14=
EXTT15=
EXTT16=
EXTT17=
EXTT18=
EXTT19=
PLAYORDER=
